<?xml version="1.0" encoding="UTF-8" standalone="no"?>
<svg width="169px" height="45px" viewBox="0 0 169 45" version="1.1" xmlns="http://www.w3.org/2000/svg" xmlns:xlink="http://www.w3.org/1999/xlink">
    <!-- Generator: Sketch 41 (35326) - http://www.bohemiancoding.com/sketch -->
    <title>Group 41</title>
    <desc>Created with Sketch.</desc>
    <defs></defs>
    <g id="Page-1" stroke="none" stroke-width="1" fill="none" fill-rule="evenodd">
        <g id="Swappt-home" transform="translate(-249.000000, -24.000000)">
            <g id="Group-41" transform="translate(249.000000, 24.000000)">
                <g id="Group-6-Copy-2" transform="translate(19.500000, 22.500000) scale(-1, 1) translate(-19.500000, -22.500000) ">
                    <polygon id="Fill-12" fill="#F15842" points="0 6.42552536 0 9.63415258 0 19.2568267 0 22.4633155 19.3840534 28.8795008 24.2300668 30.4822106 19.3840534 32.0859896 0 25.6708736 0 38.5021749 19.3840534 44.9162218 38.7681068 38.5021749 38.7681068 22.4633155 19.3840534 16.0481995 14.5380401 14.4454896 19.3840534 12.8406414 38.7681068 19.2568267 38.7681068 6.42552536 19.3840534 0.0114784764"></polygon>
                    <polygon id="Fill-13" fill="#FF8769" points="19.3840534 32.0863104 19.3840534 44.9165425 24.2300668 30.4825314"></polygon>
                    <polygon id="Fill-14" fill="#F9664E" points="0 38.5017472 19.3840534 32.0866311 0 25.6704459"></polygon>
                    <polygon id="Fill-15" fill="#FF8769" points="24.2300668 30.4822106 38.7681068 38.5021749 38.7681068 22.4633155"></polygon>
                    <polygon id="Fill-16" fill="#FF8769" points="0 22.4636363 24.2300668 30.4825314 14.5380401 14.4447412"></polygon>
                    <polygon id="Fill-17" fill="#F9664E" points="14.5379324 14.4448481 19.3839457 0.0108369648 19.3839457 12.8410691"></polygon>
                    <polygon id="Fill-18" fill="#FE8275" points="19.3840534 12.8409622 38.7681068 19.2560782 38.7681068 6.42584611"></polygon>
                    <polygon id="Fill-19" fill="#E35430" points="0 22.4636363 14.5380401 14.4447412 14.2720478 14.2982627 0 6.42584611"></polygon>
                    <polygon id="Fill-20" fill="#F15842" points="19.3840534 12.8409622 38.7681068 6.42584611 19.3840534 0.0107300462"></polygon>
                    <polygon id="Fill-21" fill="#E35430" points="19.3840534 12.8409622 38.7681068 9.36610764 38.7681068 6.42584611"></polygon>
                    <polygon id="Fill-22" fill="#E35430" points="0 34.0907134 0 38.5021749 19.3840534 32.0859896"></polygon>
                </g>
                <g id="Group-37" transform="translate(46.000000, 3.000000)" fill="#000B25">
                    <g id="Group-36" transform="translate(0.500000, 0.250000)">
                        <path d="M12.6663104,16.4269236 C12.6663104,15.6607789 12.3951789,15.0637919 11.8529076,14.6359449 C11.3106363,14.2080978 10.3579446,13.7653325 8.99480395,13.3076356 C7.63166329,12.8499387 6.51728764,12.4071734 5.65164357,11.9793264 C2.83581287,10.5962858 1.42791863,8.69587736 1.42791863,6.27804393 C1.42791863,5.07410218 1.77864847,4.01196289 2.48011866,3.09159419 C3.18158886,2.1712255 4.17407967,1.45484115 5.45762087,0.942419664 C6.74116208,0.429998175 8.18388055,0.173791274 9.78581958,0.173791274 C11.3479589,0.173791274 12.7483908,0.452385186 13.9871573,1.00958137 C15.2259238,1.56677755 16.1885653,2.36027271 16.8751106,3.39009065 C17.5616559,4.4199086 17.9049233,5.59647039 17.9049233,6.91981132 L12.6812353,6.91981132 C12.6812353,6.03426739 12.4101037,5.34773239 11.8678324,4.86018573 C11.3255611,4.37263907 10.5917647,4.1288694 9.66642099,4.1288694 C8.7311274,4.1288694 7.99235604,4.33532739 7.45008476,4.74824956 C6.90781347,5.16117173 6.6366819,5.68602276 6.6366819,6.3228184 C6.6366819,6.88001458 6.93517538,7.38496604 7.53217129,7.83768794 C8.12916719,8.29040984 9.17886926,8.75804962 10.681309,9.24062131 C12.1837487,9.72319301 13.4175217,10.2430691 14.3826651,10.8002653 C16.730849,12.1534561 17.9049233,14.0190403 17.9049233,16.397074 C17.9049233,18.297511 17.188539,19.7899784 15.7557488,20.8745209 C14.3229586,21.9590635 12.3578766,22.5013267 9.86044369,22.5013267 C8.09930576,22.5013267 6.5048531,22.1854211 5.07703788,21.5536004 C3.64922267,20.9217797 2.57464615,20.0561486 1.85327609,18.9566812 C1.13190603,17.8572137 0.771226415,16.5911039 0.771226415,15.1583137 L6.02476415,15.1583137 C6.02476415,16.3224557 6.32574507,17.1806244 6.92771595,17.7328457 C7.52968682,18.2850669 8.50725296,18.5611733 9.86044369,18.5611733 C10.7260878,18.5611733 11.4101353,18.3746149 11.9126069,18.0014925 C12.4150784,17.62837 12.6663104,17.103519 12.6663104,16.4269236 Z M36.917158,14.0986512 L39.4096035,0.472287736 L44.6034419,0.472287736 L39.9916716,22.2028302 L34.559036,22.2028302 L31.6486955,9.815227 L28.7980543,22.2028302 L23.3803435,22.2028302 L18.7536483,0.472287736 L23.9624116,0.472287736 L26.454857,14.0986512 L29.4398217,0.472287736 L33.8874189,0.472287736 L36.917158,14.0986512 Z M57.8397701,18.1432783 L50.6609302,18.1432783 L49.407245,22.2028302 L43.8104363,22.2028302 L51.7802919,0.472287736 L56.7054835,0.472287736 L64.7350384,22.2028302 L59.10838,22.2028302 L57.8397701,18.1432783 Z M51.9146153,14.0986512 L56.5860849,14.0986512 L54.2428877,6.56161557 L51.9146153,14.0986512 Z M71.0462486,14.8299676 L71.0462486,22.2028302 L65.8076357,22.2028302 L65.8076357,0.472287736 L74.4789579,0.472287736 C76.1405965,0.472287736 77.6106769,0.77824355 78.8892431,1.39016436 C80.1678094,2.00208516 81.1578127,2.87269114 81.8592829,4.0020084 C82.5607531,5.13132566 82.9114829,6.41236017 82.9114829,7.84515035 C82.9114829,9.96448583 82.152812,11.6584363 80.6354474,12.9270526 C79.1180828,14.1956689 77.0360908,14.8299676 74.3894089,14.8299676 L71.0462486,14.8299676 Z M71.0462486,10.7853405 L74.4789579,10.7853405 C75.4938509,10.7853405 76.2674465,10.5316211 76.7997679,10.0241745 C77.3320892,9.51672801 77.5982459,8.80034366 77.5982459,7.875 C77.5982459,6.86010695 77.3246269,6.04919967 76.7773806,5.44225383 C76.2301344,4.83530799 75.4839007,4.52686473 74.5386572,4.5169148 L71.0462486,4.5169148 L71.0462486,10.7853405 Z M90.4316038,14.8299676 L90.4316038,22.2028302 L85.1929909,22.2028302 L85.1929909,0.472287736 L93.8643131,0.472287736 C95.5259518,0.472287736 96.9960321,0.77824355 98.2745984,1.39016436 C99.5531646,2.00208516 100.543168,2.87269114 101.244638,4.0020084 C101.946108,5.13132566 102.296838,6.41236017 102.296838,7.84515035 C102.296838,9.96448583 101.538167,11.6584363 100.020803,12.9270526 C98.5034381,14.1956689 96.4214461,14.8299676 93.7747642,14.8299676 L90.4316038,14.8299676 Z M90.4316038,10.7853405 L93.8643131,10.7853405 C94.8792062,10.7853405 95.6528018,10.5316211 96.1851231,10.0241745 C96.7174445,9.51672801 96.9836012,8.80034366 96.9836012,7.875 C96.9836012,6.86010695 96.7099822,6.04919967 96.1627359,5.44225383 C95.6154897,4.83530799 94.869256,4.52686473 93.9240124,4.5169148 L90.4316038,4.5169148 L90.4316038,10.7853405 Z M121.637419,4.5169148 L115.115271,4.5169148 L115.115271,22.2028302 L109.876658,22.2028302 L109.876658,4.5169148 L103.473909,4.5169148 L103.473909,0.472287736 L121.637419,0.472287736 L121.637419,4.5169148 Z" id="SWAPPT-Copy"></path>
                        <path d="M6.50147418,35.1527123 C6.27505796,35.4746478 5.92040349,35.7258246 5.43750013,35.90625 C4.95459677,36.0866754 4.41421302,36.1768868 3.81633268,36.1768868 C3.21137682,36.1768868 2.67364635,36.0318411 2.20312513,35.7417453 C1.73260391,35.4516495 1.36822076,35.0412762 1.10996475,34.5106132 C0.851708743,33.9799502 0.720813825,33.3714657 0.717276072,32.6851415 L0.717276072,31.7087264 C0.717276072,30.6367871 0.987910158,29.7903923 1.52918645,29.1695165 C2.07046274,28.5486408 2.79746019,28.2382075 3.7102006,28.2382075 C4.50619515,28.2382075 5.14651893,28.4407409 5.63119117,28.8458137 C6.1158634,29.2508865 6.40418599,29.8089587 6.49616758,30.5200472 L5.84345532,30.5200472 C5.74793597,29.9540066 5.51710102,29.5250604 5.15094352,29.2331958 C4.78478603,28.9413311 4.30631204,28.7954009 3.7155072,28.7954009 C2.99380548,28.7954009 2.42246686,29.0518842 2.00147418,29.5648585 C1.58048151,30.0778328 1.36998834,30.8012925 1.36998834,31.7352594 L1.36998834,32.6479953 C1.36998834,33.2352624 1.46992837,33.7544199 1.66981145,34.2054835 C1.86969452,34.6565471 2.15624826,35.005895 2.52948126,35.2535377 C2.90271426,35.5011805 3.33166044,35.625 3.81633268,35.625 C4.37883549,35.625 4.8617316,35.5365575 5.26503551,35.3596698 C5.52682927,35.2429239 5.72140279,35.1067225 5.84876192,34.9510613 L5.84876192,32.9557783 L3.77387985,32.9557783 L3.77387985,32.4038915 L6.50147418,32.4038915 L6.50147418,35.1527123 Z M11.6481723,36.0707547 C11.5844927,35.8903293 11.5438092,35.6232329 11.5261204,35.2694575 C11.3032419,35.5595533 11.0193415,35.7833129 10.6744105,35.9407429 C10.3294795,36.098173 9.96421195,36.1768868 9.57859681,36.1768868 C9.02670726,36.1768868 8.58007258,36.0229968 8.23867936,35.7152123 C7.89728614,35.4074277 7.7265921,35.0182807 7.7265921,34.5477594 C7.7265921,33.9887944 7.9591959,33.5465818 8.42441049,33.2211085 C8.88962508,32.8956352 9.53790869,32.7329009 10.3692808,32.7329009 L11.5208138,32.7329009 L11.5208138,32.0801887 C11.5208138,31.6698093 11.394341,31.3469941 11.1413916,31.1117335 C10.8884422,30.8764729 10.519637,30.7588443 10.0349647,30.7588443 C9.59274555,30.7588443 9.22659355,30.8720508 8.93649776,31.098467 C8.64640197,31.3248832 8.50135625,31.5972861 8.50135625,31.915684 L7.86456379,31.9103774 C7.86456379,31.4540072 8.07682582,31.0586691 8.50135625,30.7243514 C8.92588667,30.3900337 9.44769749,30.2228774 10.0668044,30.2228774 C10.7071378,30.2228774 11.2121445,30.3829583 11.5818397,30.703125 C11.951535,31.0232917 12.1416864,31.4699264 12.1522996,32.0430425 L12.1522996,34.7600236 C12.1522996,35.3154509 12.2106717,35.7311307 12.3274176,36.0070755 L12.3274176,36.0707547 L11.6481723,36.0707547 Z M9.65288927,35.6143868 C10.0774197,35.6143868 10.4568381,35.5117935 10.7911558,35.3066038 C11.1254735,35.1014141 11.3686904,34.8272423 11.5208138,34.4840802 L11.5208138,33.2211085 L10.3852006,33.2211085 C9.7519427,33.228184 9.25666464,33.3440437 8.89935153,33.568691 C8.54203842,33.7933384 8.36338455,34.1020028 8.36338455,34.4946934 C8.36338455,34.816629 8.48278194,35.0837254 8.7215803,35.2959906 C8.96037867,35.5082558 9.27081188,35.6143868 9.65288927,35.6143868 Z M14.6510025,28.8590802 L14.6510025,30.3290094 L15.8396817,30.3290094 L15.8396817,30.8490566 L14.6510025,30.8490566 L14.6510025,34.6751179 C14.6510025,34.9935157 14.7084901,35.2305417 14.8234671,35.3862028 C14.9384441,35.541864 15.1303643,35.6196934 15.3992336,35.6196934 C15.5053662,35.6196934 15.6769447,35.6020049 15.9139742,35.5666274 L15.9405072,36.0866745 C15.7742328,36.1468163 15.5478199,36.1768868 15.2612619,36.1768868 C14.8261182,36.1768868 14.509494,36.050414 14.3113798,35.7974646 C14.1132656,35.5445152 14.01421,35.1721723 14.01421,34.6804245 L14.01421,30.8490566 L12.9581959,30.8490566 L12.9581959,30.3290094 L14.01421,30.3290094 L14.01421,28.8590802 L14.6510025,28.8590802 Z M17.6856723,36.0707547 L17.0488798,36.0707547 L17.0488798,30.3290094 L17.6856723,30.3290094 L17.6856723,36.0707547 Z M16.9374411,28.6680425 C16.9374411,28.5477588 16.9763558,28.4460499 17.0541864,28.3629127 C17.132017,28.2797755 17.238148,28.2382075 17.3725826,28.2382075 C17.5070173,28.2382075 17.6140327,28.2797755 17.6936322,28.3629127 C17.7732316,28.4460499 17.8130308,28.5477588 17.8130308,28.6680425 C17.8130308,28.7883261 17.7732316,28.8891505 17.6936322,28.9705189 C17.6140327,29.0518872 17.5070173,29.0925708 17.3725826,29.0925708 C17.238148,29.0925708 17.132017,29.0518872 17.0541864,28.9705189 C16.9763558,28.8891505 16.9374411,28.7883261 16.9374411,28.6680425 Z M19.8341392,30.3290094 L19.8553656,31.3107311 C20.0711686,30.9569558 20.3400338,30.6872061 20.6619694,30.5014741 C20.983905,30.315742 21.3394439,30.2228774 21.7285968,30.2228774 C22.3441659,30.2228774 22.8022981,30.3962247 23.1030072,30.7429245 C23.4037162,31.0896244 23.5558373,31.6096663 23.5593751,32.303066 L23.5593751,36.0707547 L22.9278892,36.0707547 L22.9278892,32.2977594 C22.9243515,31.7847852 22.8155672,31.4027135 22.6015331,31.151533 C22.387499,30.9003525 22.0452265,30.7747642 21.5747053,30.7747642 C21.1820146,30.7747642 20.8344356,30.8976992 20.5319576,31.1435731 C20.2294797,31.389447 20.0057201,31.7211064 19.8606722,32.1385613 L19.8606722,36.0707547 L19.2291864,36.0707547 L19.2291864,30.3290094 L19.8341392,30.3290094 Z M24.7632666,33.146816 C24.7632666,32.2482266 24.9622622,31.5362644 25.3602595,31.010908 C25.7582568,30.4855516 26.2986405,30.2228774 26.981427,30.2228774 C27.7632705,30.2228774 28.3576042,30.534195 28.7644458,31.1568396 L28.7962854,30.3290094 L29.3906251,30.3290094 L29.3906251,35.9540094 C29.3906251,36.6933999 29.1836696,37.2788894 28.7697524,37.7104953 C28.3558353,38.1421012 27.7951097,38.3579009 27.087559,38.3579009 C26.6877929,38.3579009 26.3066057,38.268574 25.9439859,38.0899175 C25.5813662,37.9112609 25.2956969,37.6733505 25.0869694,37.3761792 L25.4425119,36.9941038 C25.8918066,37.5459933 26.4259993,37.821934 27.0451062,37.821934 C27.5757692,37.821934 27.9896802,37.6653907 28.2868515,37.3522995 C28.5840228,37.0392083 28.7379127,36.6049556 28.748526,36.0495283 L28.748526,35.3278302 C28.3416844,35.8938708 27.7491195,36.1768868 26.9708137,36.1768868 C26.3057161,36.1768868 25.7715233,35.9115593 25.3682194,35.3808962 C24.9649155,34.8502332 24.7632666,34.1338489 24.7632666,33.2317217 L24.7632666,33.146816 Z M25.4053656,33.2582547 C25.4053656,33.9905697 25.5521802,34.5680993 25.8458137,34.9908608 C26.1394473,35.4136224 26.5533582,35.625 27.087559,35.625 C27.8694026,35.625 28.4230527,35.2747677 28.748526,34.5742925 L28.748526,31.9050708 C28.5999404,31.5371444 28.3859095,31.2567816 28.106427,31.0639741 C27.8269444,30.8711665 27.4908629,30.7747642 27.0981722,30.7747642 C26.5639714,30.7747642 26.1482916,30.9843729 25.8511203,31.4035967 C25.553949,31.8228205 25.4053656,32.4410336 25.4053656,33.2582547 Z M35.146875,35.1580189 L36.8237618,30.3290094 L37.5083137,30.3290094 L35.0566628,37.0471698 L34.9293043,37.3443396 C34.6144442,38.0412771 34.1280104,38.3897406 33.4699882,38.3897406 C33.3178648,38.3897406 33.1551306,38.3649767 32.9817807,38.3154481 L32.9764741,37.7900943 L33.3054835,37.821934 C33.6168058,37.821934 33.868867,37.744989 34.0616746,37.5910967 C34.2544821,37.4372044 34.4181008,37.1727613 34.5525354,36.7977594 L34.8337854,36.0229953 L32.6686911,30.3290094 L33.3638562,30.3290094 L35.146875,35.1580189 Z M37.8790684,33.1149764 C37.8790684,32.5630869 37.9860839,32.0660399 38.200118,31.6238208 C38.414152,31.1816016 38.7166254,30.8375602 39.1075472,30.5916863 C39.498469,30.3458124 39.9415659,30.2228774 40.4368514,30.2228774 C41.2010062,30.2228774 41.8201038,30.4908582 42.2941628,31.0268278 C42.7682217,31.5627975 43.0052477,32.2729909 43.0052477,33.1574292 L43.0052477,33.2900943 C43.0052477,33.8455216 42.8982322,34.3452218 42.6841981,34.7892099 C42.470164,35.233198 42.1685751,35.5754705 41.7794222,35.8160377 C41.3902693,36.056605 40.9462879,36.1768868 40.4474646,36.1768868 C39.6868476,36.1768868 39.0686345,35.908906 38.5928066,35.3729363 C38.1169788,34.8369667 37.8790684,34.1267733 37.8790684,33.2423349 L37.8790684,33.1149764 Z M38.5158609,33.2900943 C38.5158609,33.9764185 38.6936303,34.5397973 39.0491746,34.9802476 C39.4047188,35.420698 39.8708108,35.6409198 40.4474646,35.6409198 C41.0205807,35.6409198 41.4849039,35.420698 41.8404481,34.9802476 C42.1959924,34.5397973 42.3737618,33.95873 42.3737618,33.2370283 L42.3737618,33.1149764 C42.3737618,32.676295 42.2923947,32.274766 42.129658,31.9103774 C41.9669214,31.5459887 41.7387397,31.2638571 41.4451062,31.0639741 C41.1514726,30.864091 40.8153911,30.7641509 40.4368514,30.7641509 C39.8708109,30.7641509 39.409141,30.9861416 39.0518279,31.4301297 C38.6945147,31.8741178 38.5158609,32.4551851 38.5158609,33.1733491 L38.5158609,33.2900943 Z M47.8282429,35.34375 C47.4461656,35.8991773 46.8359122,36.1768868 45.9974646,36.1768868 C45.3854333,36.1768868 44.9202257,35.9991173 44.6018278,35.6435731 C44.28343,35.2880289 44.1206958,34.7617959 44.1136203,34.0648585 L44.1136203,30.3290094 L44.7451061,30.3290094 L44.7451061,33.9852594 C44.7451061,35.0784253 45.1873187,35.625 46.0717571,35.625 C46.991573,35.625 47.5735247,35.2446972 47.8176297,34.4840802 L47.8176297,30.3290094 L48.4544222,30.3290094 L48.4544222,36.0707547 L47.8388561,36.0707547 L47.8282429,35.34375 Z M52.5769458,30.870283 C52.4425111,30.8455187 52.2992343,30.8331368 52.1471108,30.8331368 C51.7508825,30.8331368 51.4156853,30.9436899 51.1415094,31.1647995 C50.8673335,31.3859091 50.6718756,31.7069554 50.5551297,32.1279481 L50.5551297,36.0707547 L49.9236439,36.0707547 L49.9236439,30.3290094 L50.5445165,30.3290094 L50.5551297,31.2417453 C50.8912163,30.5624966 51.4307156,30.2228774 52.1736439,30.2228774 C52.3505315,30.2228774 52.4902707,30.2458724 52.5928656,30.2918632 L52.5769458,30.870283 Z M60.4770637,33.2582547 C60.4770637,34.1533064 60.2789524,34.8634997 59.882724,35.3888561 C59.4864956,35.9142125 58.9558406,36.1768868 58.2907429,36.1768868 C57.5053616,36.1768868 56.9039525,35.9009462 56.4864976,35.3490566 L56.4864976,38.2783019 L55.8550118,38.2783019 L55.8550118,30.3290094 L56.4440448,30.3290094 L56.4758844,31.1409198 C56.8898016,30.5288884 57.4894418,30.2228774 58.2748231,30.2228774 C58.9611473,30.2228774 59.4997622,30.4828983 59.8906839,31.0029481 C60.2816057,31.5229979 60.4770637,32.2446888 60.4770637,33.1680425 L60.4770637,33.2582547 Z M59.8402712,33.146816 C59.8402712,32.4145011 59.6899189,31.836087 59.3892099,31.4115566 C59.0885008,30.9870262 58.6692833,30.7747642 58.1315448,30.7747642 C57.7423919,30.7747642 57.4080792,30.8685132 57.1285967,31.0560142 C56.8491141,31.2435151 56.6350833,31.515918 56.4864976,31.8732311 L56.4864976,34.6273585 C56.638621,34.9563696 56.8561896,35.2075463 57.1392099,35.3808962 C57.4222302,35.5542461 57.7565429,35.6409198 58.142158,35.6409198 C58.6763588,35.6409198 59.092923,35.4277734 59.3918632,35.0014741 C59.6908034,34.5751748 59.8402712,33.9569616 59.8402712,33.146816 Z M65.3265919,36.0707547 C65.2629124,35.8903293 65.2222288,35.6232329 65.2045401,35.2694575 C64.9816616,35.5595533 64.6977611,35.7833129 64.3528302,35.9407429 C64.0078992,36.098173 63.6426316,36.1768868 63.2570165,36.1768868 C62.7051269,36.1768868 62.2584922,36.0229968 61.917099,35.7152123 C61.5757058,35.4074277 61.4050118,35.0182807 61.4050118,34.5477594 C61.4050118,33.9887944 61.6376156,33.5465818 62.1028302,33.2211085 C62.5680447,32.8956352 63.2163284,32.7329009 64.0477004,32.7329009 L65.1992335,32.7329009 L65.1992335,32.0801887 C65.1992335,31.6698093 65.0727607,31.3469941 64.8198113,31.1117335 C64.5668619,30.8764729 64.1980566,30.7588443 63.7133844,30.7588443 C63.2711652,30.7588443 62.9050132,30.8720508 62.6149174,31.098467 C62.3248216,31.3248832 62.1797759,31.5972861 62.1797759,31.915684 L61.5429835,31.9103774 C61.5429835,31.4540072 61.7552455,31.0586691 62.1797759,30.7243514 C62.6043063,30.3900337 63.1261171,30.2228774 63.745224,30.2228774 C64.3855574,30.2228774 64.8905642,30.3829583 65.2602594,30.703125 C65.6299546,31.0232917 65.820106,31.4699264 65.8307193,32.0430425 L65.8307193,34.7600236 C65.8307193,35.3154509 65.8890914,35.7311307 66.0058372,36.0070755 L66.0058372,36.0707547 L65.3265919,36.0707547 Z M63.3313089,35.6143868 C63.7558393,35.6143868 64.1352577,35.5117935 64.4695754,35.3066038 C64.8038931,35.1014141 65.04711,34.8272423 65.1992335,34.4840802 L65.1992335,33.2211085 L64.0636202,33.2211085 C63.4303624,33.228184 62.9350843,33.3440437 62.5777712,33.568691 C62.2204581,33.7933384 62.0418042,34.1020028 62.0418042,34.4946934 C62.0418042,34.816629 62.1612016,35.0837254 62.4,35.2959906 C62.6387983,35.5082558 62.9492315,35.6143868 63.3313089,35.6143868 Z M69.0829599,35.1580189 L70.7598466,30.3290094 L71.4443985,30.3290094 L68.9927476,37.0471698 L68.8653891,37.3443396 C68.550529,38.0412771 68.0640952,38.3897406 67.4060731,38.3897406 C67.2539497,38.3897406 67.0912154,38.3649767 66.9178655,38.3154481 L66.9125589,37.7900943 L67.2415683,37.821934 C67.5528907,37.821934 67.8049518,37.744989 67.9977594,37.5910967 C68.190567,37.4372044 68.3541856,37.1727613 68.4886202,36.7977594 L68.7698702,36.0229953 L66.6047759,30.3290094 L67.299941,30.3290094 L69.0829599,35.1580189 Z M72.823408,30.3290094 L72.8446344,31.2629717 C73.0568996,30.9162719 73.3222271,30.6562509 73.6406249,30.4829009 C73.9590228,30.309551 74.3127928,30.2228774 74.7019457,30.2228774 C75.6076106,30.2228774 76.1824869,30.5943359 76.4265919,31.3372642 C76.6317816,30.979951 76.9059534,30.7048948 77.2491155,30.5120873 C77.5922776,30.3192797 77.9708115,30.2228774 78.3847287,30.2228774 C79.6158669,30.2228774 80.2438088,30.8950404 80.268573,32.2393868 L80.268573,36.0707547 L79.6317806,36.0707547 L79.6317806,32.2871462 C79.6282428,31.774172 79.5176897,31.3938692 79.3001179,31.1462264 C79.082546,30.8985837 78.7278915,30.7747642 78.2361438,30.7747642 C77.7797736,30.7818397 77.3941642,30.9295387 77.0793042,31.2178656 C76.7644441,31.5061925 76.5893279,31.8573093 76.5539504,32.2712264 L76.5539504,36.0707547 L75.917158,36.0707547 L75.917158,32.2393868 C75.9136202,31.7476391 75.7977605,31.3806026 75.5695754,31.1382665 C75.3413903,30.8959304 74.9902735,30.7747642 74.5162146,30.7747642 C74.1164484,30.7747642 73.7732915,30.888855 73.4867334,31.1170401 C73.2001754,31.3452252 72.9879134,31.68396 72.849941,32.1332547 L72.849941,36.0707547 L72.2131485,36.0707547 L72.2131485,30.3290094 L72.823408,30.3290094 Z M83.9188089,36.1768868 C83.4305989,36.1768868 82.9892708,36.056605 82.5948112,35.8160377 C82.2003517,35.5754705 81.8934562,35.2402734 81.6741155,34.8104363 C81.4547748,34.3805993 81.3451061,33.8985876 81.3451061,33.3643868 L81.3451061,33.1362028 C81.3451061,32.5843133 81.4521215,32.0872664 81.6661556,31.6450472 C81.8801897,31.202828 82.1782409,30.8552489 82.5603183,30.6022995 C82.9423957,30.3493502 83.3563067,30.2228774 83.8020636,30.2228774 C84.499001,30.2228774 85.0517667,30.4607877 85.4603773,30.9366156 C85.8689878,31.4124434 86.07329,32.0624959 86.07329,32.8867925 L86.07329,33.2423349 L81.9765919,33.2423349 L81.9765919,33.3643868 C81.9765919,34.0153334 82.1632056,34.557486 82.5364386,34.9908608 C82.9096716,35.4242357 83.3793013,35.6409198 83.9453419,35.6409198 C84.2849662,35.6409198 84.5847864,35.5790101 84.8448112,35.4551887 C85.1048361,35.3313673 85.3409776,35.1332561 85.5532428,34.8608491 L85.9512381,35.1633255 C85.4842547,35.8390364 84.806785,36.1768868 83.9188089,36.1768868 Z M83.8020636,30.7641509 C83.3244669,30.7641509 82.9220534,30.9392671 82.5948112,31.2895047 C82.267569,31.6397423 82.0685734,32.1102565 81.9978183,32.7010613 L85.4418042,32.7010613 L85.4418042,32.6320755 C85.4241154,32.0801859 85.2666877,31.630898 84.9695164,31.2841981 C84.6723451,30.9374983 84.2831981,30.7641509 83.8020636,30.7641509 Z M87.7335494,30.3290094 L87.7547759,31.3107311 C87.9705788,30.9569558 88.2394441,30.6872061 88.5613796,30.5014741 C88.8833152,30.315742 89.2388541,30.2228774 89.628007,30.2228774 C90.2435761,30.2228774 90.7017083,30.3962247 91.0024174,30.7429245 C91.3031264,31.0896244 91.4552475,31.6096663 91.4587853,32.303066 L91.4587853,36.0707547 L90.8272994,36.0707547 L90.8272994,32.2977594 C90.8237617,31.7847852 90.7149774,31.4027135 90.5009433,31.151533 C90.2869092,30.9003525 89.9446367,30.7747642 89.4741155,30.7747642 C89.0814248,30.7747642 88.7338458,30.8976992 88.4313678,31.1435731 C88.1288899,31.389447 87.9051304,31.7211064 87.7600825,32.1385613 L87.7600825,36.0707547 L87.1285966,36.0707547 L87.1285966,30.3290094 L87.7335494,30.3290094 Z M93.9044221,28.8590802 L93.9044221,30.3290094 L95.0931013,30.3290094 L95.0931013,30.8490566 L93.9044221,30.8490566 L93.9044221,34.6751179 C93.9044221,34.9935157 93.9619097,35.2305417 94.0768867,35.3862028 C94.1918637,35.541864 94.3837839,35.6196934 94.6526532,35.6196934 C94.7587858,35.6196934 94.9303643,35.6020049 95.1673938,35.5666274 L95.1939268,36.0866745 C95.0276524,36.1468163 94.8012395,36.1768868 94.5146815,36.1768868 C94.0795378,36.1768868 93.7629136,36.050414 93.5647994,35.7974646 C93.3666852,35.5445152 93.2676296,35.1721723 93.2676296,34.6804245 L93.2676296,30.8490566 L92.2116155,30.8490566 L92.2116155,30.3290094 L93.2676296,30.3290094 L93.2676296,28.8590802 L93.9044221,28.8590802 Z M99.6666862,34.6114387 C99.6666862,34.2965786 99.5402134,34.043633 99.287264,33.8525943 C99.0343147,33.6615556 98.6531274,33.5120878 98.1436909,33.4041863 C97.6342544,33.2962848 97.2389164,33.1724653 96.957665,33.0327241 C96.6764136,32.8929828 96.4676892,32.7222887 96.3314857,32.5206368 C96.1952822,32.3189848 96.1271815,32.0748835 96.1271815,31.7883255 C96.1271815,31.335493 96.3164485,30.9613812 96.6949881,30.6659788 C97.0735277,30.3705764 97.5581927,30.2228774 98.1489975,30.2228774 C98.7893309,30.2228774 99.3031819,30.3811895 99.6905659,30.6978184 C100.07795,31.0144473 100.271639,31.4274739 100.271639,31.9369104 L99.6348466,31.9369104 C99.6348466,31.6008238 99.494223,31.3213455 99.2129716,31.098467 C98.9317202,30.8755885 98.5770657,30.7641509 98.1489975,30.7641509 C97.7315426,30.7641509 97.3963455,30.8570156 97.1433961,31.0427476 C96.8904467,31.2284797 96.7639739,31.4699278 96.7639739,31.7670991 C96.7639739,32.0536571 96.8692205,32.2756478 97.0797169,32.4330778 C97.2902132,32.5905079 97.6740537,32.7346692 98.2312499,32.865566 C98.7884461,32.9964629 99.2058947,33.1362021 99.4836084,33.2847877 C99.761322,33.4333734 99.9673931,33.6120273 100.101828,33.8207547 C100.236262,34.0294822 100.303479,34.2824278 100.303479,34.5795991 C100.303479,35.0642713 100.108021,35.4516495 99.7170989,35.7417453 C99.3261772,36.0318411 98.8158639,36.1768868 98.1861438,36.1768868 C97.5175083,36.1768868 96.9753557,36.015037 96.5596697,35.6913325 C96.1439837,35.3676281 95.9361438,34.9581393 95.9361438,34.4628538 L96.5729362,34.4628538 C96.5977005,34.8343179 96.7542437,35.1235249 97.0425706,35.3304835 C97.3308976,35.5374421 97.7120848,35.6409198 98.1861438,35.6409198 C98.6283629,35.6409198 98.9856707,35.543633 99.2580777,35.3490566 C99.5304847,35.1544802 99.6666862,34.90861 99.6666862,34.6114387 Z" id="Gating-your-payments-Copy"></path>
                    </g>
                </g>
            </g>
        </g>
    </g>
</svg>